<?xml version="1.0" encoding="utf-8"?>
<!-- Generator: Adobe Illustrator 24.1.1, SVG Export Plug-In . SVG Version: 6.00 Build 0)  -->
<svg version="1.1" id="Layer_1" xmlns="http://www.w3.org/2000/svg" xmlns:xlink="http://www.w3.org/1999/xlink" x="0px" y="0px"
	 viewBox="0 0 490 490" style="enable-background:new 0 0 490 490;" xml:space="preserve">
<style type="text/css">
	.st0{opacity:0.1;stroke:#000000;stroke-width:9;stroke-miterlimit:10;}
	.st1{fill:#5C6D6D;}
	.st2{fill:#212528;}
	.st3{fill:#94989B;}
	.st4{fill:#3E4347;}
	.st5{fill:#42ADE2;}
	.st6{fill:#C7E755;}
	.st7{fill:#F2B200;}
	.st8{fill:#FF435E;}
	.st9{fill:#C28FEF;}
	.st10{fill:#F8C471;}
	.st11{fill:none;}
</style>
<circle class="st0" cx="244" cy="244.7" r="228.2"/>
<path class="st1" d="M352.4,70.4c0-12.4-13-25.4-26.7-25.4h-170c-13.6,0-26.7,13-26.7,25.4v345.5c0,13,13,25.4,26.7,25.4h170.6
	c13,0,26.7-13,26.7-25.4V70.4H352.4z"/>
<path class="st2" d="M346.2,411c0,12.4-12.4,24.8-24.8,24.8H160.1c-12.4,0-24.8-12.4-24.8-24.8V76c0-12.4,12.4-24.8,24.8-24.8h161.3
	c12.4,0,24.8,12.4,24.8,24.8V411"/>
<g>
	<circle class="st3" cx="312.1" cy="72.9" r="6.2"/>
	<path class="st3" d="M259.4,72.9c0,1.9-0.6,3.1-1.9,3.1H224c-1.2,0-1.9-1.2-1.9-3.1c0-1.2,0.6-3.1,1.9-3.1h33.5
		C258.7,69.8,259.4,71.7,259.4,72.9"/>
</g>
<path class="st4" d="M147.7,94.6h186.1v297.7H147.7V94.6z"/>
<path class="st3" d="M264.3,418.4c0,2.5-1.9,5-5,5h-37.2c-2.5,0-5-1.9-5-5v-9.3c0-2.5,1.9-5,5-5h37.2c2.5,0,5,1.9,5,5V418.4"/>
<path class="st5" d="M191.1,136.2c0,3.1-2.5,5-5,5h-20.5c-3.1,0-5-2.5-5-5v-20.5c0-3.1,2.5-5,5-5h20.5c3.1,0,5,2.5,5,5V136.2"/>
<path class="st6" d="M234.6,136.2c0,3.1-2.5,5-5,5h-20.5c-3.1,0-5-2.5-5-5v-20.5c0-3.1,2.5-5,5-5h20.5c3.1,0,5,2.5,5,5V136.2"/>
<path class="st7" d="M278,136.2c0,3.1-2.5,5-5,5h-20.5c-3.1,0-5-2.5-5-5v-20.5c0-3.1,2.5-5,5-5H273c3.1,0,5,2.5,5,5V136.2"/>
<path class="st5" d="M321.4,136.2c0,3.1-2.5,5-5,5H296c-3.1,0-5-2.5-5-5v-20.5c0-3.1,2.5-5,5-5h20.5c3.1,0,5,2.5,5,5V136.2"/>
<path class="st6" d="M191.1,375c0,3.1-2.5,5-5,5h-20.5c-3.1,0-5-2.5-5-5v-20.5c0-3.1,2.5-5,5-5h20.5c3.1,0,5,2.5,5,5V375"/>
<path class="st8" d="M234.6,375c0,3.1-2.5,5-5,5h-20.5c-3.1,0-5-2.5-5-5v-20.5c0-3.1,2.5-5,5-5h20.5c3.1,0,5,2.5,5,5V375"/>
<path class="st5" d="M278,375c0,3.1-2.5,5-5,5h-20.5c-3.1,0-5-2.5-5-5v-20.5c0-3.1,2.5-5,5-5H273c3.1,0,5,2.5,5,5V375"/>
<path class="st9" d="M321.4,375c0,3.1-2.5,5-5,5H296c-3.1,0-5-2.5-5-5v-20.5c0-3.1,2.5-5,5-5h20.5c3.1,0,5,2.5,5,5V375"/>
<path class="st6" d="M191.1,255.3c0,3.1-2.5,5-5,5h-20.5c-3.1,0-5-2.5-5-5v-20.5c0-3.1,2.5-5,5-5h20.5c3.1,0,5,2.5,5,5V255.3"/>
<path class="st9" d="M234.6,255.3c0,3.1-2.5,5-5,5h-20.5c-3.1,0-5-2.5-5-5v-20.5c0-3.1,2.5-5,5-5h20.5c3.1,0,5,2.5,5,5V255.3"/>
<path class="st5" d="M278,255.3c0,3.1-2.5,5-5,5h-20.5c-3.1,0-5-2.5-5-5v-20.5c0-3.1,2.5-5,5-5H273c3.1,0,5,2.5,5,5V255.3"/>
<path class="st8" d="M191.1,215.6c0,3.1-2.5,5-5,5h-20.5c-3.1,0-5-2.5-5-5v-20.5c0-3.1,2.5-5,5-5h20.5c3.1,0,5,2.5,5,5V215.6"/>
<path class="st7" d="M234.6,215.6c0,3.1-2.5,5-5,5h-20.5c-3.1,0-5-2.5-5-5v-20.5c0-3.1,2.5-5,5-5h20.5c3.1,0,5,2.5,5,5V215.6"/>
<path class="st6" d="M278,215.6c0,3.1-2.5,5-5,5h-20.5c-3.1,0-5-2.5-5-5v-20.5c0-3.1,2.5-5,5-5H273c3.1,0,5,2.5,5,5V215.6"/>
<path class="st7" d="M321.4,215.6c0,3.1-2.5,5-5,5H296c-3.1,0-5-2.5-5-5v-20.5c0-3.1,2.5-5,5-5h20.5c3.1,0,5,2.5,5,5V215.6"/>
<path class="st9" d="M191.1,175.9c0,3.1-2.5,5-5,5h-20.5c-3.1,0-5-2.5-5-5v-20.5c0-3.1,2.5-5,5-5h20.5c3.1,0,5,2.5,5,5V175.9"/>
<path class="st5" d="M234.6,175.9c0,3.1-2.5,5-5,5h-20.5c-3.1,0-5-2.5-5-5v-20.5c0-3.1,2.5-5,5-5h20.5c3.1,0,5,2.5,5,5V175.9"/>
<path class="st8" d="M278,175.9c0,3.1-2.5,5-5,5h-20.5c-3.1,0-5-2.5-5-5v-20.5c0-3.1,2.5-5,5-5H273c3.1,0,5,2.5,5,5V175.9"/>
<path class="st9" d="M321.4,175.9c0,3.1-2.5,5-5,5H296c-3.1,0-5-2.5-5-5v-20.5c0-3.1,2.5-5,5-5h20.5c3.1,0,5,2.5,5,5V175.9"/>
<g>
	<g id="XMLID_1_">
		<g>
			<path class="st10" d="M350.5,349.7c2.1,2.5,3,5.7,2.6,9.6c0,0.1,0,0.2,0,0.3c0,0.2,3.3,27.7-6.7,46.8l-2.3,7.4l-42.3-0.1l0.1-1.1
				c0-0.2,0-0.3,0-0.5c0-2.2-1.4-4.6-4.1-6.9c-0.8-0.8-18.4-17.5-25.5-30c-4.7-6.6-16.2-25-13.5-32c0.3-0.9,1-2.1,3.1-2.5
				c1-0.4,1.8-0.5,2.7-0.5c5.2,0,9.6,5.9,12.9,10.2c2.4,3.2,4,5.2,5.7,5.2c0.6,0,1-0.2,1.5-0.6c1.2-1.2,1.9-4.3,1.9-15.4
				c0.1-1.4,1.2-13.3,1.2-50.3c0.8-8.3,3.3-9.2,4.4-9.2c2.6,0,5.6,3.7,6.1,6c0,0.1,0.1,0.3,0.1,0.4l0.1,0.3c0.1,0.6,0.3,1.8,0.5,3.7
				l0,0.4c0.5,4.2,1,10.7,1.5,16.4l0,0.6c2,23.7,2.3,25.3,3.6,25.7c0.3,0.1,0.7,0,1-0.2c0.4-0.3,4.1-2.9,8-2.9
				c3.6,0,6.5,2.3,8.5,6.7c0.1,0.3,0.4,0.5,0.7,0.6c0.3,0.1,0.6,0.1,0.9-0.1c0,0,2.9-1.7,6.3-1.7c4.2,0,7.2,2.6,8.9,7.6
				c0.1,0.4,0.5,0.7,0.9,0.7C339.2,344.2,346.5,344.8,350.5,349.7z"/>
			<path class="st10" d="M329.3,335.8c-3.3,0-6.3,1.6-6.3,1.7c-0.3,0.1-0.6,0.2-0.9,0.1c-0.3-0.1-0.5-0.3-0.7-0.6
				c-2-4.4-4.8-6.7-8.5-6.7c-3.9,0-7.6,2.6-8,2.9c-0.3,0.2-0.7,0.3-1,0.2c-1.3-0.4-1.6-2-3.6-25.7l0-0.6c-0.5-5.7-1-12.2-1.5-16.4
				l0-0.4c-0.2-1.9-0.4-3.1-0.5-3.7l-0.1-0.3c-0.1-0.1-0.1-0.2-0.1-0.4c-0.5-2.3-3.5-6-6.1-6c-1.1,0-3.6,0.9-4.4,9.2
				c0,36.9-1.1,48.9-1.2,50.3c0,11.1-0.7,14.2-1.9,15.4c-0.4,0.4-0.9,0.6-1.5,0.6c-1.7,0-3.3-2.1-5.7-5.2
				c-3.3-4.3-7.7-10.2-12.9-10.2c-0.8,0-1.7,0.1-2.7,0.5c-2.1,0.5-2.8,1.7-3.1,2.5c-2.6,7,8.8,25.4,13.5,32
				c7.1,12.5,24.7,29.3,25.5,30c2.7,2.4,4.1,4.7,4.1,6.9c0,0.2,0,0.3,0,0.5l-0.1,1.1l42.3,0.1l2.3-7.4c10-19,6.8-46.5,6.7-46.8
				c0-0.1,0-0.2,0-0.3c0.4-3.8-0.5-7.1-2.6-9.6c-4-4.8-11.2-5.5-11.3-5.5c-0.4,0-0.8-0.3-0.9-0.7
				C336.5,338.4,333.5,335.8,329.3,335.8z M363.5,356.3c0.1,0.9,0.1,1.9,0,3c0.5,5,2.5,31.1-7.6,51.1l-4.3,13.7l-61.2-0.1l0.8-10.6
				l-0.9-0.8c-1.9-1.9-19.2-18.4-27.1-32c-4.4-6.2-10.3-15.6-13.4-24.7l-0.2-0.7h0c-0.3-1-0.6-1.9-1.1-2.7c-0.2-0.7-0.4-1.4-0.7-2
				c0.1-0.6,0.1-1.3,0.1-1.9c0-0.5-0.1-1.1-0.2-1.6c0-0.4,0.1-0.8,0.1-1.1v-0.2c0-0.3,0-0.5,0-0.8h0l0.1-1c0.1-1.6,0.4-3.1,0.9-4.4
				c1.6-4.3,5.2-7.6,9.9-8.8c5.3-1.8,11-1,16,2.3l1.5,1l0.1-1.8c0.3-7.1,0.7-20.2,0.7-42.8l0.1-1.1c1.6-17.2,11.7-18.6,14.8-18.6
				c7.2,0,13.3,6,15.6,12l0.4,0.6l0.5,1.8c0.3,1.1,0.5,2.5,0.8,5l0.1,0.9c0.5,4.4,1,10.7,1.5,16.3l0.1,1c0.3,3.7,0.7,7.9,1,11.6
				l0.1,1l1.2,0c2.2,0,7.9,0.5,12.8,5.4l0.4,0.4l0.5-0.1c0.8-0.1,1.7-0.1,2.5-0.1c3.2,0,11.1,0.9,16.2,9.2l0.2,0.3l0.4,0.1
				c3.6,1.1,8.6,3.4,12.4,8c0.3,0.4,0.7,0.9,1,1.4l0.3,0.4h0c0.7,1.2,1.6,2.2,2.6,3.1c0.1,0.1,0.3,0.3,0.4,0.4
				c0.1,1.2,0.4,2.3,0.8,3.3c-0.1,0.8-0.2,1.6-0.2,2.4c0,0.4,0,0.8,0.1,1.2h-0.1L363.5,356.3z"/>
		</g>
		<g>
		</g>
	</g>
</g>
<line class="st11" x1="305.9" y1="338.6" x2="307.8" y2="354.6"/>
<line class="st11" x1="322.9" y1="342.7" x2="323.4" y2="354.8"/>
<g>
	<g>
		<path class="st10" d="M288.3,350c1.7,3.1,2.9,6.3,3.7,9.8c0.7,3.2,4.4,5,7.4,4.2c3.3-0.9,4.9-4.2,4.2-7.4c-1-4.4-2.7-8.7-4.9-12.7
			c-1.6-2.8-5.5-3.8-8.2-2.2C287.6,343.4,286.7,347.1,288.3,350L288.3,350z"/>
	</g>
</g>
<g>
	<g>
		<path class="st10" d="M313.7,351.6c3.3,2.5,6.2,5.4,8.8,8.6c2,2.4,6.4,2.2,8.5,0c2.4-2.6,2.1-5.9,0-8.5c-2.6-3.2-5.5-6.1-8.8-8.6
			c-2.5-1.9-6.1-2.6-8.5,0C311.7,345.3,311,349.6,313.7,351.6L313.7,351.6z"/>
	</g>
</g>
</svg>
