<?xml version="1.0" encoding="utf-8"?>
<!-- Generator: Adobe Illustrator 24.1.1, SVG Export Plug-In . SVG Version: 6.00 Build 0)  -->
<svg version="1.1" id="Layer_1" xmlns="http://www.w3.org/2000/svg" xmlns:xlink="http://www.w3.org/1999/xlink" x="0px" y="0px"
	 viewBox="0 0 490 490" style="enable-background:new 0 0 490 490;" xml:space="preserve">
<style type="text/css">
	.st0{opacity:0.1;stroke:#000000;stroke-width:9;stroke-miterlimit:10;enable-background:new    ;}
	.st1{fill:none;}
	.st2{fill:#1E1E1C;}
	.st3{fill:#2B2B2B;}
	.st4{fill:#5D6061;}
	.st5{fill:#FF0037;}
	.st6{fill:#FFE261;}
	.st7{fill:#745B4D;}
	.st8{fill:#362E28;}
	.st9{fill:#5BA0BE;}
	.st10{fill-opacity:0.1;}
	.st11{fill-opacity:0.2;}
	.st12{fill:#FFFFFF;}
	.st13{fill:#FF1515;}
	.st14{fill:none;stroke:#FFFFFF;stroke-miterlimit:10;}
	.st15{fill:#FCFCFC;}
	.st16{fill:#3A3A3A;}
	.st17{fill:#3D3D3D;}
	.st18{fill:#65C5E2;}
	.st19{fill:#D2B429;}
	.st20{fill:#C9487C;}
	.st21{fill:#79AB33;}
	.st22{opacity:0.13;fill:#FFFFFF;enable-background:new    ;}
</style>
<circle class="st0" cx="244" cy="244.7" r="228.2"/>
<line class="st1" x1="305.9" y1="338.6" x2="307.8" y2="354.6"/>
<line class="st1" x1="322.9" y1="342.7" x2="323.4" y2="354.8"/>
<g id="SVGRepo_iconCarrier">
	<g id="brt-bus-inbound" transform="matrix(1.27,0,0,1.27,-46.314,-39.542)">
		<g transform="matrix(0.459284,0,0,0.459284,55.5343,45)">
			<path class="st2" d="M126.7,305.4L99,295.9V155.1l27.6-9.3L126.7,305.4L126.7,305.4z"/>
		</g>
		<g transform="matrix(0.459284,0,0,0.459284,55.5343,45)">
			<path class="st2" d="M126.7,158.2l22.5-1.3l0.2,54.8l6.4,2.3l-1.5-68.1h-27.6C126.7,145.9,126.7,158.2,126.7,158.2z"/>
		</g>
		<g transform="matrix(0.459284,0,0,0.459284,55.5343,45)">
			<path class="st2" d="M627,145.8l27.6,9.3v140.8l-27.6,9.5V145.8z"/>
		</g>
		<g transform="matrix(0.459284,0,0,0.459284,55.5343,45)">
			<path class="st2" d="M627,145.8h-27.7l-1.5,68.1l6.4-2.2l0.2-54.8l22.5,1.3L627,145.8L627,145.8z"/>
		</g>
		<g transform="matrix(0.459284,0,0,0.459284,55.5343,45)">
			<path class="st3" d="M218.1,681.9l55.7-119.8l-45.5-44.2"/>
		</g>
		<g transform="matrix(0.459284,0,0,0.459284,55.5343,45)">
			<path class="st4" d="M156,518l13.5,163.9h48.6l10.2-164L156,518z"/>
		</g>
		<g transform="matrix(0.459284,0,0,0.459284,55.5343,45)">
			<path class="st3" d="M535.3,681.9l-55.7-119.7l45.5-44.2"/>
		</g>
		<g transform="matrix(0.459284,0,0,0.459284,55.5343,45)">
			<path class="st4" d="M597.4,518l-13.5,163.9h-48.6l-10.2-164L597.4,518z"/>
		</g>
		<g transform="matrix(0.459284,0,0,0.459284,55.5343,45)">
			<path class="st5" d="M604.5,126.8L584.1,97H169.3L149,126.8l-11.7,444l21.4,62.5H595l21.4-62.5L604.5,126.8z"/>
		</g>
		<g transform="matrix(0.459284,0,0,0.459284,55.5343,45)">
			<path class="st2" d="M167.6,508.9l-17.8-52L161.3,127l14.6-30h401.6l14.6,30.1L603.8,457L586,509H167.6V508.9z"/>
		</g>
		<g transform="matrix(0.459284,0,0,0.459284,55.5343,45)">
			<path class="st6" d="M242.9,570.8l-10.6,31.4h-46.2l-10.6-31.4H242.9z"/>
		</g>
		<g transform="matrix(0.459284,0,0,0.459284,55.5343,45)">
			<path class="st6" d="M578.1,570.8l-10.6,31.4h-46.2l-10.8-31.4H578.1z"/>
		</g>
		<g transform="matrix(0.459284,0,0,0.459284,55.5343,45)">
			<path class="st7" d="M204.2,97.1l4.4-12.8h336.1l4.4,12.8H204.2z"/>
		</g>
		<g transform="matrix(0.459284,0,0,0.459284,55.5343,45)">
			<path class="st8" d="M350.3,84.2l4.4-12.8h44l4.4,12.8H350.3z"/>
		</g>
		<g transform="matrix(0.459284,0,0,0.459284,55.5343,45)">
			<path class="st2" d="M577.5,97H175.9l-14.6,30H592L577.5,97z"/>
		</g>
		<g transform="matrix(0.459284,0,0,0.459284,55.5343,45)">
			<path class="st6" d="M592.1,127.1L592.1,127.1H161.4l-1.9,52.8H594L592.1,127.1z"/>
		</g>
		<g transform="matrix(0.459284,0,0,0.459284,55.5343,45)">
			<path class="st9" d="M159.5,179.8L151,423.1h451.7L594,179.8H159.5z"/>
		</g>
		<g transform="matrix(0.459284,0,0,0.459284,55.5343,45)">
			<path class="st5" d="M179.1,170.4l-0.2-33.9h6.9v27.2h11.3v6.7H179.1z"/>
		</g>
		<g transform="matrix(0.459284,0,0,0.459284,55.5343,45)">
			<path class="st5" d="M204.7,136.7l0.1,18.3l18,0.2l0.1,15.2l6.7-0.1v-33.6h-6.9l-0.1,11.7h-11.3v-11.7L204.7,136.7z"/>
		</g>
		<g transform="matrix(0.459284,0,0,0.459284,55.5343,45)">
			<path class="st10" d="M598.9,319.2L409.1,508.9H167.6l-10.4-30.3L508.8,127h83.3l1.9,52.8L598.9,319.2L598.9,319.2z"/>
		</g>
		<g transform="matrix(0.459284,0,0,0.459284,55.5343,45)">
			<path class="st1" d="M409.1,508.9L409.1,508.9"/>
		</g>
		<g transform="matrix(0.459284,0,0,0.459284,55.5343,45)">
			<path class="st11" d="M599.8,344.8L435.7,508.9h-26.6l189.8-189.8L599.8,344.8z"/>
		</g>
		<g transform="matrix(0.459284,0,0,0.459284,55.5343,45)">
			<path class="st1" d="M598.9,319.2L598.9,319.2"/>
		</g>
	</g>
</g>
<g>
	<g id="XMLID_1_">
		<g>
			<path class="st12" d="M328.5,283.5c42.8,0,77.5,34.7,77.5,77.5s-34.7,77.5-77.5,77.5S251,403.7,251,360.9
				S285.7,283.5,328.5,283.5z M399.1,360.9c0-38.9-31.7-70.6-70.6-70.6s-70.6,31.7-70.6,70.6s31.7,70.6,70.6,70.6
				S399.1,399.9,399.1,360.9z"/>
			<path class="st13" d="M328.5,290.3c38.9,0,70.6,31.7,70.6,70.6s-31.7,70.6-70.6,70.6s-70.6-31.7-70.6-70.6
				S289.6,290.3,328.5,290.3z M388.8,360.9c0-25.1-15.5-46.7-37.4-55.7v58.5l4.4-4.4c2.2-2.2,5.7-2.2,7.9,0c2.2,2.2,2.2,5.7,0,7.9
				l-14,14l0,0l-3.9,3.9l-3.9-3.9l0,0l-13-13c-1.9-1.9-2.1-4.9-0.7-7c0.2-0.3,0.4-0.6,0.7-0.9c2.2-2.2,5.7-2.2,7.9,0l3.5,3.5V303
				c0-0.4,0-0.7,0.1-1.1c-3.8-0.8-7.8-1.2-11.8-1.2c-33.2,0-60.3,27-60.3,60.3c0,23.9,14,44.5,34.2,54.3v-57l-4.4,4.4
				c-1.1,1.1-2.5,1.6-3.9,1.6s-2.9-0.5-3.9-1.6c-2.2-2.2-2.2-5.7,0-7.9l14-14l0,0l3.9-3.9l3.9,3.9l0,0l13,13c1.9,1.9,2.1,4.9,0.7,7
				c-0.2,0.3-0.4,0.6-0.7,0.9c-2.2,2.2-5.7,2.2-7.9,0l-3.5-3.5V419c0,0.1,0,0.2,0,0.3c4.8,1.2,9.8,1.9,14.9,1.9
				C361.8,421.2,388.8,394.2,388.8,360.9z"/>
			<path class="st12" d="M351.4,305.2c21.9,9,37.4,30.6,37.4,55.7c0,33.2-27,60.3-60.3,60.3c-5.2,0-10.1-0.7-14.9-1.9
				c0-0.1,0-0.2,0-0.3v-60.7l3.5,3.5c2.2,2.2,5.7,2.2,7.9,0c0.3-0.3,0.5-0.6,0.7-0.9l2.4,0.2c-1.4,2.2-1.2,5.1,0.7,7l13,13l0,0
				l3.9,3.9l3.9-3.9l0,0l14-14c2.2-2.2,2.2-5.7,0-7.9c-2.2-2.2-5.7-2.2-7.9,0l-4.4,4.4L351.4,305.2L351.4,305.2z"/>
			<path class="st12" d="M340.4,301.8c-0.1,0.4-0.1,0.7-0.1,1.1v60.8l-3.5-3.5c-2.2-2.2-5.7-2.2-7.9,0c-0.3,0.3-0.5,0.6-0.7,0.9
				l-2.4-0.2c1.4-2.2,1.2-5.1-0.7-7l-13-13l0,0l-3.9-3.9l-3.9,3.9l0,0l-14,14c-2.2,2.2-2.2,5.7,0,7.9c1.1,1.1,2.5,1.6,3.9,1.6
				s2.9-0.5,3.9-1.6l4.4-4.4v57c-20.2-9.7-34.2-30.4-34.2-54.3c0-33.2,27-60.3,60.3-60.3C332.6,300.7,336.5,301.1,340.4,301.8z"/>
		</g>
		<g>
			<path class="st14" d="M328.5,283.5c-42.8,0-77.5,34.7-77.5,77.5s34.7,77.5,77.5,77.5S406,403.8,406,361S371.3,283.5,328.5,283.5z
				"/>
			<path class="st14" d="M328.5,431.5c-38.9,0-70.6-31.7-70.6-70.6s31.7-70.6,70.6-70.6s70.6,31.7,70.6,70.6
				S367.5,431.5,328.5,431.5z"/>
			<path class="st14" d="M325.8,360.8c-0.2,0.3-0.4,0.6-0.7,0.9c-2.2,2.2-5.7,2.2-7.9,0l-3.5-3.5V419c0,0.1,0,0.2,0,0.3
				c4.8,1.2,9.8,1.9,14.9,1.9c33.2,0,60.3-27,60.3-60.3c0-25.1-15.5-46.7-37.4-55.7v58.5l4.4-4.4c2.2-2.2,5.7-2.2,7.9,0
				c2.2,2.2,2.2,5.7,0,7.9l-14,14l0,0l-3.9,3.9l-3.9-3.9l0,0l-13-13c-1.9-1.9-2.1-4.9-0.7-7c0.2-0.3,0.4-0.6,0.7-0.9
				c2.2-2.2,5.7-2.2,7.9,0l3.5,3.5V303c0-0.4,0-0.7,0.1-1.1c-3.8-0.8-7.8-1.2-11.8-1.2c-33.2,0-60.3,27-60.3,60.3
				c0,23.9,14,44.5,34.2,54.3v-57l-4.4,4.4c-1.1,1.1-2.5,1.6-3.9,1.6s-2.9-0.5-3.9-1.6c-2.2-2.2-2.2-5.7,0-7.9l14-14l0,0l3.9-3.9
				l3.9,3.9l0,0l13,13C326.9,355.7,327.2,358.7,325.8,360.8z"/>
		</g>
	</g>
</g>
<path class="st15" d="M254.9,360c0-40.4,32.7-73.1,73.1-73.1c40.4,0,73.1,32.7,73.1,73.1c0,40.4-32.7,73.1-73.1,73.1
	C287.6,433.2,254.9,400.4,254.9,360z"/>
<path class="st12" d="M288,376.3h85c1.2,0,2.3-1,2.3-2.3v-21.7c0-1.2-1-2.3-2.3-2.3h-85c-1.2,0-2.3,1-2.3,2.3V374
	C285.8,375.3,286.8,376.3,288,376.3z"/>
<g>
	<rect x="277" y="311.7" class="st16" width="6" height="90.2"/>
	<rect x="280" y="377.2" class="st16" width="9.4" height="4"/>
	<rect x="277" y="362.6" class="st16" width="12.9" height="4"/>
	<rect x="280" y="348" class="st16" width="9.4" height="4"/>
	<rect x="277" y="333.3" class="st16" width="12.9" height="4"/>
	<rect x="280" y="318.7" class="st16" width="9.4" height="4"/>
	<path class="st16" d="M282.8,399.9l-2.1,2.1l-2.4,2.4l-0.8,0.8c-0.3-0.4-0.5-0.8-0.5-1.3v-4H282.8z"/>
	<path class="st17" d="M277.5,405.2c0.4,0.4,0.9,0.7,1.5,0.7h98.9v-6h-95.1L277.5,405.2z"/>
	<path class="st18" d="M315.5,391.8c0,1.6,1.3,2.8,2.8,2.8h10.1c1.6,0,2.8-1.3,2.8-2.8v-19.6l-15.8,9V391.8L315.5,391.8z"/>
	<path class="st19" d="M335.9,377.5v6.9v7.3c0,1.6,1.3,2.8,2.8,2.8h7.3l0,0h2.8c1.6,0,2.8-1.3,2.8-2.8v-14.2v-17l-15.8,9
		L335.9,377.5L335.9,377.5z"/>
	<path class="st20" d="M356.3,357.9v24.7v9.2c0,0.7,0.3,1.4,0.7,1.9c0.5,0.6,1.3,0.9,2.1,0.9h10.1c1.6,0,2.8-1.3,2.8-2.8v-9.2v-4
		v-29.7L356.3,357.9z"/>
	<path class="st21" d="M298,394.6h10.1c1.6,0,2.8-1.3,2.8-2.8v-8l-15.6,8.9C295.7,393.8,296.7,394.6,298,394.6z"/>
	<polygon class="st18" points="331.3,366.8 331.3,365.1 315.5,365.1 315.5,381.2 331.3,372.2 331.3,366.8 	"/>
	<polygon class="st19" points="335.9,348 335.9,369.5 351.8,360.5 351.8,348 	"/>
	<polygon class="st20" points="372.2,321.8 356.3,321.8 356.3,357.9 372.2,348.9 	"/>
	<path class="st21" d="M310.9,359.4V348h-11.4h-4.4v29.8v14c0,0.3,0.1,0.6,0.2,0.9l15.6-8.9v-6V359.4z"/>
	<polygon class="st22" points="331.3,366.8 331.3,365.1 315.5,365.1 315.5,381.2 331.3,372.2 331.3,366.8 	"/>
	<polygon class="st22" points="335.9,348 335.9,369.5 351.8,360.5 351.8,348 	"/>
	<polygon class="st22" points="372.2,321.8 356.3,321.8 356.3,357.9 372.2,348.9 	"/>
	<path class="st22" d="M310.9,359.4V348h-11.4h-4.4v29.8v14c0,0.3,0.1,0.6,0.2,0.9l15.6-8.9v-6V359.4z"/>
</g>
</svg>
