<?xml version="1.0" encoding="utf-8"?>
<!-- Generator: Adobe Illustrator 24.1.1, SVG Export Plug-In . SVG Version: 6.00 Build 0)  -->
<svg version="1.1" id="Layer_1" xmlns="http://www.w3.org/2000/svg" xmlns:xlink="http://www.w3.org/1999/xlink" x="0px" y="0px"
	 viewBox="0 0 490 490" style="enable-background:new 0 0 490 490;" xml:space="preserve">
<style type="text/css">
	.st0{opacity:0.1;stroke:#000000;stroke-width:9;stroke-miterlimit:10;enable-background:new    ;}
	.st1{fill:none;}
	.st2{fill:#1E1E1C;}
	.st3{fill:#2B2B2B;}
	.st4{fill:#5D6061;}
	.st5{fill:#FF0037;}
	.st6{fill:#FFE261;}
	.st7{fill:#745B4D;}
	.st8{fill:#362E28;}
	.st9{fill:#5BA0BE;}
	.st10{fill-opacity:0.1;}
	.st11{fill-opacity:0.2;}
	.st12{display:none;}
	.st13{display:inline;}
	.st14{fill:#00DF5E;}
	.st15{fill:#FFFFFF;}
	.st16{fill:#FF1515;}
	.st17{fill:none;stroke:#FFFFFF;stroke-miterlimit:10;}
	.st18{fill:#FECA09;stroke:#FFFFFF;stroke-width:3;stroke-miterlimit:10;}
	.st19{fill:#FC5923;stroke:#FFFFFF;stroke-width:3;stroke-miterlimit:10;}
	.st20{fill:none;stroke:#FBFF00;stroke-width:13;stroke-linecap:round;stroke-linejoin:round;stroke-miterlimit:111.1111;}
	.st21{fill:#FFFF00;stroke:#FBFF00;stroke-linecap:round;stroke-linejoin:round;stroke-miterlimit:111.1111;}
</style>
<circle class="st0" cx="244" cy="244.7" r="228.2"/>
<line class="st1" x1="305.9" y1="338.6" x2="307.8" y2="354.6"/>
<line class="st1" x1="322.9" y1="342.7" x2="323.4" y2="354.8"/>
<g id="SVGRepo_iconCarrier">
	<g id="brt-bus-inbound" transform="matrix(1.27,0,0,1.27,-46.314,-39.542)">
		<g transform="matrix(0.459284,0,0,0.459284,55.5343,45)">
			<path class="st2" d="M126.7,305.4L99,295.9V155.1l27.6-9.3L126.7,305.4L126.7,305.4z"/>
		</g>
		<g transform="matrix(0.459284,0,0,0.459284,55.5343,45)">
			<path class="st2" d="M126.7,158.2l22.5-1.3l0.2,54.8l6.4,2.3l-1.5-68.1h-27.6C126.7,145.9,126.7,158.2,126.7,158.2z"/>
		</g>
		<g transform="matrix(0.459284,0,0,0.459284,55.5343,45)">
			<path class="st2" d="M627,145.8l27.6,9.3v140.8l-27.6,9.5V145.8z"/>
		</g>
		<g transform="matrix(0.459284,0,0,0.459284,55.5343,45)">
			<path class="st2" d="M627,145.8h-27.7l-1.5,68.1l6.4-2.2l0.2-54.8l22.5,1.3L627,145.8L627,145.8z"/>
		</g>
		<g transform="matrix(0.459284,0,0,0.459284,55.5343,45)">
			<path class="st3" d="M218.1,681.9l55.7-119.8l-45.5-44.2"/>
		</g>
		<g transform="matrix(0.459284,0,0,0.459284,55.5343,45)">
			<path class="st4" d="M156,518l13.5,163.9h48.6l10.2-164L156,518z"/>
		</g>
		<g transform="matrix(0.459284,0,0,0.459284,55.5343,45)">
			<path class="st3" d="M535.3,681.9l-55.7-119.7l45.5-44.2"/>
		</g>
		<g transform="matrix(0.459284,0,0,0.459284,55.5343,45)">
			<path class="st4" d="M597.4,518l-13.5,163.9h-48.6l-10.2-164L597.4,518z"/>
		</g>
		<g transform="matrix(0.459284,0,0,0.459284,55.5343,45)">
			<path class="st5" d="M604.5,126.8L584.1,97H169.3L149,126.8l-11.7,444l21.4,62.5H595l21.4-62.5L604.5,126.8z"/>
		</g>
		<g transform="matrix(0.459284,0,0,0.459284,55.5343,45)">
			<path class="st2" d="M167.6,508.9l-17.8-52L161.3,127l14.6-30h401.6l14.6,30.1L603.8,457L586,509H167.6V508.9z"/>
		</g>
		<g transform="matrix(0.459284,0,0,0.459284,55.5343,45)">
			<path class="st6" d="M242.9,570.8l-10.6,31.4h-46.2l-10.6-31.4H242.9z"/>
		</g>
		<g transform="matrix(0.459284,0,0,0.459284,55.5343,45)">
			<path class="st6" d="M578.1,570.8l-10.6,31.4h-46.2l-10.8-31.4H578.1z"/>
		</g>
		<g transform="matrix(0.459284,0,0,0.459284,55.5343,45)">
			<path class="st7" d="M204.2,97.1l4.4-12.8h336.1l4.4,12.8H204.2z"/>
		</g>
		<g transform="matrix(0.459284,0,0,0.459284,55.5343,45)">
			<path class="st8" d="M350.3,84.2l4.4-12.8h44l4.4,12.8H350.3z"/>
		</g>
		<g transform="matrix(0.459284,0,0,0.459284,55.5343,45)">
			<path class="st2" d="M577.5,97H175.9l-14.6,30H592L577.5,97z"/>
		</g>
		<g transform="matrix(0.459284,0,0,0.459284,55.5343,45)">
			<path class="st6" d="M592.1,127.1L592.1,127.1H161.4l-1.9,52.8H594L592.1,127.1z"/>
		</g>
		<g transform="matrix(0.459284,0,0,0.459284,55.5343,45)">
			<path class="st9" d="M159.5,179.8L151,423.1h451.7L594,179.8H159.5z"/>
		</g>
		<g transform="matrix(0.459284,0,0,0.459284,55.5343,45)">
			<path class="st5" d="M179.1,170.4l-0.2-33.9h6.9v27.2h11.3v6.7H179.1z"/>
		</g>
		<g transform="matrix(0.459284,0,0,0.459284,55.5343,45)">
			<path class="st5" d="M204.7,136.7l0.1,18.3l18,0.2l0.1,15.2l6.7-0.1v-33.6h-6.9l-0.1,11.7h-11.3v-11.7L204.7,136.7z"/>
		</g>
		<g transform="matrix(0.459284,0,0,0.459284,55.5343,45)">
			<path class="st10" d="M598.9,319.2L409.1,508.9H167.6l-10.4-30.3L508.8,127h83.3l1.9,52.8L598.9,319.2L598.9,319.2z"/>
		</g>
		<g transform="matrix(0.459284,0,0,0.459284,55.5343,45)">
			<path class="st1" d="M409.1,508.9L409.1,508.9"/>
		</g>
		<g transform="matrix(0.459284,0,0,0.459284,55.5343,45)">
			<path class="st11" d="M599.8,344.8L435.7,508.9h-26.6l189.8-189.8L599.8,344.8z"/>
		</g>
		<g transform="matrix(0.459284,0,0,0.459284,55.5343,45)">
			<path class="st1" d="M598.9,319.2L598.9,319.2"/>
		</g>
	</g>
</g>
<g class="st12">
	<g id="XMLID_1_" class="st13">
		<g>
			<path d="M332.6,282.7c40,0,72.4,32.4,72.4,72.4s-32.4,72.4-72.4,72.4s-72.4-32.4-72.4-72.4S292.6,282.7,332.6,282.7z
				 M371.7,337.2l-10.9-10.9l-0.1,0.1l-38.4,38.3l-20.3-20.3L291,355.3l0.1,0.1l-0.1,0.1l31.3,31.3l49.4-49.3L371.7,337.2z"/>
			
				<rect x="366.1" y="324.1" transform="matrix(0.7075 -0.7068 0.7068 0.7075 -127.3807 355.8596)" class="st14" width="0.2" height="15.5"/>
			<polygon points="371.6,337.3 322.2,386.7 291,355.4 301.9,344.5 322.2,364.8 360.6,326.4 			"/>
			<polygon class="st14" points="322.2,364.7 360.6,326.4 322.2,364.8 301.9,344.5 291,355.4 291,355.3 301.9,344.4 			"/>
		</g>
		<g>
		</g>
	</g>
</g>
<g class="st12">
	<g id="XMLID_2_" class="st13">
		<g>
			<path class="st15" d="M336.5,277.3c42.8,0,77.5,34.7,77.5,77.5s-34.7,77.5-77.5,77.5S259,397.5,259,354.7
				S293.7,277.3,336.5,277.3z M407.1,354.7c0-38.9-31.7-70.6-70.6-70.6s-70.6,31.7-70.6,70.6s31.7,70.6,70.6,70.6
				S407.1,393.7,407.1,354.7z"/>
			<path class="st16" d="M336.5,284.1c38.9,0,70.6,31.7,70.6,70.6s-31.7,70.6-70.6,70.6s-70.6-31.7-70.6-70.6
				S297.6,284.1,336.5,284.1z M396.8,354.7c0-25.1-15.5-46.7-37.4-55.7v58.5l4.4-4.4c2.2-2.2,5.7-2.2,7.9,0c2.2,2.2,2.2,5.7,0,7.9
				l-14,14l0,0l-3.9,3.9l-3.9-3.9l0,0l-13-13c-1.9-1.9-2.1-4.9-0.7-7c0.2-0.3,0.4-0.6,0.7-0.9c2.2-2.2,5.7-2.2,7.9,0l3.5,3.5v-60.8
				c0-0.4,0-0.7,0.1-1.1c-3.8-0.8-7.8-1.2-11.8-1.2c-33.2,0-60.3,27-60.3,60.3c0,23.9,14,44.5,34.2,54.3v-57l-4.4,4.4
				c-1.1,1.1-2.5,1.6-3.9,1.6s-2.9-0.5-3.9-1.6c-2.2-2.2-2.2-5.7,0-7.9l14-14l0,0l3.9-3.9l3.9,3.9l0,0l13,13c1.9,1.9,2.1,4.9,0.7,7
				c-0.2,0.3-0.4,0.6-0.7,0.9c-2.2,2.2-5.7,2.2-7.9,0l-3.5-3.5v60.8c0,0.1,0,0.2,0,0.3c4.8,1.2,9.8,1.9,14.9,1.9
				C369.8,415,396.8,388,396.8,354.7z"/>
			<path class="st15" d="M359.4,299c21.9,9,37.4,30.6,37.4,55.7c0,33.2-27,60.3-60.3,60.3c-5.2,0-10.1-0.7-14.9-1.9
				c0-0.1,0-0.2,0-0.3v-60.7l3.5,3.5c2.2,2.2,5.7,2.2,7.9,0c0.3-0.3,0.5-0.6,0.7-0.9l2.4,0.2c-1.4,2.2-1.2,5.1,0.7,7l13,13l0,0
				l3.9,3.9l3.9-3.9l0,0l14-14c2.2-2.2,2.2-5.7,0-7.9c-2.2-2.2-5.7-2.2-7.9,0l-4.4,4.4L359.4,299L359.4,299z"/>
			<path class="st15" d="M348.4,295.6c-0.1,0.4-0.1,0.7-0.1,1.1v60.8l-3.5-3.5c-2.2-2.2-5.7-2.2-7.9,0c-0.3,0.3-0.5,0.6-0.7,0.9
				l-2.4-0.2c1.4-2.2,1.2-5.1-0.7-7l-13-13l0,0l-3.9-3.9l-3.9,3.9l0,0l-14,14c-2.2,2.2-2.2,5.7,0,7.9c1.1,1.1,2.5,1.6,3.9,1.6
				s2.9-0.5,3.9-1.6l4.4-4.4v57c-20.2-9.7-34.2-30.4-34.2-54.3c0-33.2,27-60.3,60.3-60.3C340.6,294.5,344.5,294.9,348.4,295.6z"/>
		</g>
		<g>
			<path class="st17" d="M336.5,277.3c-42.8,0-77.5,34.7-77.5,77.5s34.7,77.5,77.5,77.5s77.5-34.7,77.5-77.5
				S379.3,277.3,336.5,277.3z"/>
			<path class="st17" d="M336.5,425.3c-38.9,0-70.6-31.7-70.6-70.6s31.7-70.6,70.6-70.6s70.6,31.7,70.6,70.6
				S375.5,425.3,336.5,425.3z"/>
			<path class="st17" d="M333.8,354.6c-0.2,0.3-0.4,0.6-0.7,0.9c-2.2,2.2-5.7,2.2-7.9,0l-3.5-3.5v60.8c0,0.1,0,0.2,0,0.3
				c4.8,1.2,9.8,1.9,14.9,1.9c33.2,0,60.3-27,60.3-60.3c0-25.1-15.5-46.7-37.4-55.7v58.5l4.4-4.4c2.2-2.2,5.7-2.2,7.9,0
				c2.2,2.2,2.2,5.7,0,7.9l-14,14l0,0l-3.9,3.9L350,375l0,0l-13-13c-1.9-1.9-2.1-4.9-0.7-7c0.2-0.3,0.4-0.6,0.7-0.9
				c2.2-2.2,5.7-2.2,7.9,0l3.5,3.5v-60.8c0-0.4,0-0.7,0.1-1.1c-3.8-0.8-7.8-1.2-11.8-1.2c-33.2,0-60.3,27-60.3,60.3
				c0,23.9,14,44.5,34.2,54.3v-57l-4.4,4.4c-1.1,1.1-2.5,1.6-3.9,1.6s-2.9-0.5-3.9-1.6c-2.2-2.2-2.2-5.7,0-7.9l14-14l0,0l3.9-3.9
				l3.9,3.9l0,0l13,13C334.9,349.5,335.2,352.5,333.8,354.6z"/>
		</g>
	</g>
</g>
<g class="st12">
	<g class="st13">
		<polygon class="st18" points="389.2,391.1 381.5,391.1 375.8,379.6 368.1,379.6 362.3,391.1 308.6,391.1 300.9,379.6 285.5,379.6 
			285.5,348.8 300.9,348.8 300.9,341.2 352.7,341.2 352.7,348.8 362.3,348.8 368.1,358.4 375.8,358.4 381.5,341.2 389.2,341.2 		"/>
		<path class="st18" d="M285.5,364.2h-7.7c-1.1,0-1.9-0.9-1.9-1.9c0-1.1,0.9-1.9,1.9-1.9h7.7c1.1,0,1.9,0.9,1.9,1.9
			C287.4,363.3,286.6,364.2,285.5,364.2"/>
		<path class="st18" d="M277.8,371.9c-1.1,0-1.9-0.9-1.9-1.9v-15.4c0-1.1,0.9-1.9,1.9-1.9c1.1,0,1.9,0.9,1.9,1.9V370
			C279.8,371,278.9,371.9,277.8,371.9"/>
	</g>
	<g class="st13">
		<polygon class="st19" points="310.5,329.6 345,329.6 345,318.1 310.5,318.1 		"/>
		<polygon class="st19" points="318.2,341.2 337.4,341.2 337.4,329.6 318.2,329.6 		"/>
		<polygon class="st19" points="285.5,379.6 300.9,379.6 300.9,348.8 285.5,348.8 		"/>
		<polygon class="st19" points="368.1,379.6 375.8,379.6 375.8,358.4 368.1,358.4 		"/>
	</g>
</g>
<g id="SVGRepo_iconCarrier_1_">
	<path class="st20" d="M105,228c0,22.1-17.9,40-40,40c22.1,0,40,17.9,40,40c0-22.1,17.9-40,40-40C122.9,268.1,105,250.1,105,228z"/>
	<path class="st20" d="M155,301.4c0,9.2-7.5,16.7-16.7,16.7c9.2,0,16.7,7.5,16.7,16.7c0-9.2,7.5-16.7,16.7-16.7
		C162.5,318.1,155,310.6,155,301.4z"/>
</g>
<g id="SVGRepo_iconCarrier_2_">
	<path class="st20" d="M344,49.3c0,22.1-17.9,40-40,40c22.1,0,40,17.9,40,40c0-22.1,17.9-40,40-40C361.9,89.3,344,71.4,344,49.3z"/>
	<path class="st20" d="M394,122.7c0,9.2-7.5,16.7-16.7,16.7c9.2,0,16.7,7.5,16.7,16.7c0-9.2,7.5-16.7,16.7-16.7
		C401.5,139.3,394,131.9,394,122.7z"/>
</g>
<rect x="328" y="74.2" class="st21" width="31.7" height="31.7"/>
<rect x="90" y="253.8" class="st21" width="31.7" height="28.5"/>
<rect x="389.9" y="135.9" class="st21" width="8.8" height="8.8"/>
<rect x="151.4" y="312.1" class="st21" width="8.8" height="8.8"/>
</svg>
