<?xml version="1.0" encoding="utf-8"?>
<!-- Generator: Adobe Illustrator 24.1.1, SVG Export Plug-In . SVG Version: 6.00 Build 0)  -->
<svg version="1.1" id="Layer_1" xmlns="http://www.w3.org/2000/svg" xmlns:xlink="http://www.w3.org/1999/xlink" x="0px" y="0px"
	 viewBox="0 0 490 490" style="enable-background:new 0 0 490 490;" xml:space="preserve">
<style type="text/css">
	.st0{opacity:0.1;stroke:#000000;stroke-width:9;stroke-miterlimit:10;enable-background:new    ;}
	.st1{fill:none;}
	.st2{display:none;}
	.st3{display:inline;}
	.st4{fill:#1E1E1C;}
	.st5{fill:#2B2B2B;}
	.st6{fill:#5D6061;}
	.st7{fill:#FF0037;}
	.st8{fill:#FFE261;}
	.st9{fill:#745B4D;}
	.st10{fill:#362E28;}
	.st11{fill:#5BA0BE;}
	.st12{fill-opacity:0.1;}
	.st13{fill-opacity:0.2;}
	.st14{fill:#00DF5E;}
	.st15{fill:#FFFFFF;}
	.st16{fill:#FF1515;}
	.st17{fill:none;stroke:#FFFFFF;stroke-miterlimit:10;}
	.st18{fill:#FECA09;stroke:#FFFFFF;stroke-width:3;stroke-miterlimit:10;}
	.st19{fill:#FC5923;stroke:#FFFFFF;stroke-width:3;stroke-miterlimit:10;}
	
		.st20{display:inline;fill:none;stroke:#FBFF00;stroke-width:13;stroke-linecap:round;stroke-linejoin:round;stroke-miterlimit:111.1111;}
	.st21{display:none;fill:#FFFF00;stroke:#FBFF00;stroke-linecap:round;stroke-linejoin:round;stroke-miterlimit:111.1111;}
	.st22{display:none;fill:#FFFFFF;stroke:#515262;stroke-width:21.9178;stroke-miterlimit:43.8356;}
	.st23{fill:#707487;}
	.st24{fill:#E6AF78;}
	.st25{fill:#B4E1FA;}
	.st26{fill:#D29B6E;}
	.st27{fill:#F0C087;}
	.st28{fill:#A0D2F0;}
	.st29{fill:#5B5D6E;}
	.st30{fill:#515262;}
	.st31{fill:#785550;}
	.st32{fill:#694B4B;}
	.st33{fill:#5A4146;}
	.st34{fill:#464655;}
	.st35{fill:#333E48;}
	.st36{fill:#00AD68;}
	.st37{fill:#FF5959;}
	.st38{fill:#A4A9AD;}
	.st39{fill:#FFB819;}
	.st40{fill:#F2D383;}
	.st41{fill:#D1D3D3;}
</style>
<circle class="st0" cx="244" cy="244.7" r="228.2"/>
<line class="st1" x1="305.9" y1="338.6" x2="307.8" y2="354.6"/>
<line class="st1" x1="322.9" y1="342.7" x2="323.4" y2="354.8"/>
<g id="SVGRepo_iconCarrier" class="st2">
	<g id="brt-bus-inbound" transform="matrix(1.27,0,0,1.27,-46.314,-39.542)" class="st3">
		<g transform="matrix(0.459284,0,0,0.459284,55.5343,45)">
			<path class="st4" d="M126.7,305.4L99,295.9V155.1l27.6-9.3L126.7,305.4L126.7,305.4z"/>
		</g>
		<g transform="matrix(0.459284,0,0,0.459284,55.5343,45)">
			<path class="st4" d="M126.7,158.2l22.5-1.3l0.2,54.8l6.4,2.3l-1.5-68.1h-27.6C126.7,145.9,126.7,158.2,126.7,158.2z"/>
		</g>
		<g transform="matrix(0.459284,0,0,0.459284,55.5343,45)">
			<path class="st4" d="M627,145.8l27.6,9.3v140.8l-27.6,9.5V145.8z"/>
		</g>
		<g transform="matrix(0.459284,0,0,0.459284,55.5343,45)">
			<path class="st4" d="M627,145.8h-27.7l-1.5,68.1l6.4-2.2l0.2-54.8l22.5,1.3L627,145.8L627,145.8z"/>
		</g>
		<g transform="matrix(0.459284,0,0,0.459284,55.5343,45)">
			<path class="st5" d="M218.1,681.9l55.7-119.8l-45.5-44.2"/>
		</g>
		<g transform="matrix(0.459284,0,0,0.459284,55.5343,45)">
			<path class="st6" d="M156,518l13.5,163.9h48.6l10.2-164L156,518z"/>
		</g>
		<g transform="matrix(0.459284,0,0,0.459284,55.5343,45)">
			<path class="st5" d="M535.3,681.9l-55.7-119.7l45.5-44.2"/>
		</g>
		<g transform="matrix(0.459284,0,0,0.459284,55.5343,45)">
			<path class="st6" d="M597.4,518l-13.5,163.9h-48.6l-10.2-164L597.4,518z"/>
		</g>
		<g transform="matrix(0.459284,0,0,0.459284,55.5343,45)">
			<path class="st7" d="M604.5,126.8L584.1,97H169.3L149,126.8l-11.7,444l21.4,62.5H595l21.4-62.5L604.5,126.8z"/>
		</g>
		<g transform="matrix(0.459284,0,0,0.459284,55.5343,45)">
			<path class="st4" d="M167.6,508.9l-17.8-52L161.3,127l14.6-30h401.6l14.6,30.1L603.8,457L586,509H167.6V508.9z"/>
		</g>
		<g transform="matrix(0.459284,0,0,0.459284,55.5343,45)">
			<path class="st8" d="M242.9,570.8l-10.6,31.4h-46.2l-10.6-31.4H242.9z"/>
		</g>
		<g transform="matrix(0.459284,0,0,0.459284,55.5343,45)">
			<path class="st8" d="M578.1,570.8l-10.6,31.4h-46.2l-10.8-31.4H578.1z"/>
		</g>
		<g transform="matrix(0.459284,0,0,0.459284,55.5343,45)">
			<path class="st9" d="M204.2,97.1l4.4-12.8h336.1l4.4,12.8H204.2z"/>
		</g>
		<g transform="matrix(0.459284,0,0,0.459284,55.5343,45)">
			<path class="st10" d="M350.3,84.2l4.4-12.8h44l4.4,12.8H350.3z"/>
		</g>
		<g transform="matrix(0.459284,0,0,0.459284,55.5343,45)">
			<path class="st4" d="M577.5,97H175.9l-14.6,30H592L577.5,97z"/>
		</g>
		<g transform="matrix(0.459284,0,0,0.459284,55.5343,45)">
			<path class="st8" d="M592.1,127.1L592.1,127.1H161.4l-1.9,52.8H594L592.1,127.1z"/>
		</g>
		<g transform="matrix(0.459284,0,0,0.459284,55.5343,45)">
			<path class="st11" d="M159.5,179.8L151,423.1h451.7L594,179.8H159.5z"/>
		</g>
		<g transform="matrix(0.459284,0,0,0.459284,55.5343,45)">
			<path class="st7" d="M179.1,170.4l-0.2-33.9h6.9v27.2h11.3v6.7H179.1z"/>
		</g>
		<g transform="matrix(0.459284,0,0,0.459284,55.5343,45)">
			<path class="st7" d="M204.7,136.7l0.1,18.3l18,0.2l0.1,15.2l6.7-0.1v-33.6h-6.9l-0.1,11.7h-11.3v-11.7L204.7,136.7z"/>
		</g>
		<g transform="matrix(0.459284,0,0,0.459284,55.5343,45)">
			<path class="st12" d="M598.9,319.2L409.1,508.9H167.6l-10.4-30.3L508.8,127h83.3l1.9,52.8L598.9,319.2L598.9,319.2z"/>
		</g>
		<g transform="matrix(0.459284,0,0,0.459284,55.5343,45)">
			<path class="st1" d="M409.1,508.9L409.1,508.9"/>
		</g>
		<g transform="matrix(0.459284,0,0,0.459284,55.5343,45)">
			<path class="st13" d="M599.8,344.8L435.7,508.9h-26.6l189.8-189.8L599.8,344.8z"/>
		</g>
		<g transform="matrix(0.459284,0,0,0.459284,55.5343,45)">
			<path class="st1" d="M598.9,319.2L598.9,319.2"/>
		</g>
	</g>
</g>
<g class="st2">
	<g id="XMLID_1_" class="st3">
		<g>
			<path d="M332.6,282.7c40,0,72.4,32.4,72.4,72.4s-32.4,72.4-72.4,72.4s-72.4-32.4-72.4-72.4S292.6,282.7,332.6,282.7z
				 M371.7,337.2l-10.9-10.9l-0.1,0.1l-38.4,38.3l-20.3-20.3L291,355.3l0.1,0.1l-0.1,0.1l31.3,31.3l49.4-49.3L371.7,337.2z"/>
			
				<rect x="366.1" y="324.1" transform="matrix(0.7075 -0.7068 0.7068 0.7075 -127.3807 355.8596)" class="st14" width="0.2" height="15.5"/>
			<polygon points="371.6,337.3 322.2,386.7 291,355.4 301.9,344.5 322.2,364.8 360.6,326.4 			"/>
			<polygon class="st14" points="322.2,364.7 360.6,326.4 322.2,364.8 301.9,344.5 291,355.4 291,355.3 301.9,344.4 			"/>
		</g>
		<g>
		</g>
	</g>
</g>
<g class="st2">
	<g id="XMLID_2_" class="st3">
		<g>
			<path class="st15" d="M336.5,277.3c42.8,0,77.5,34.7,77.5,77.5s-34.7,77.5-77.5,77.5S259,397.5,259,354.7
				S293.7,277.3,336.5,277.3z M407.1,354.7c0-38.9-31.7-70.6-70.6-70.6s-70.6,31.7-70.6,70.6s31.7,70.6,70.6,70.6
				S407.1,393.7,407.1,354.7z"/>
			<path class="st16" d="M336.5,284.1c38.9,0,70.6,31.7,70.6,70.6s-31.7,70.6-70.6,70.6s-70.6-31.7-70.6-70.6
				S297.6,284.1,336.5,284.1z M396.8,354.7c0-25.1-15.5-46.7-37.4-55.7v58.5l4.4-4.4c2.2-2.2,5.7-2.2,7.9,0c2.2,2.2,2.2,5.7,0,7.9
				l-14,14l0,0l-3.9,3.9l-3.9-3.9l0,0l-13-13c-1.9-1.9-2.1-4.9-0.7-7c0.2-0.3,0.4-0.6,0.7-0.9c2.2-2.2,5.7-2.2,7.9,0l3.5,3.5v-60.8
				c0-0.4,0-0.7,0.1-1.1c-3.8-0.8-7.8-1.2-11.8-1.2c-33.2,0-60.3,27-60.3,60.3c0,23.9,14,44.5,34.2,54.3v-57l-4.4,4.4
				c-1.1,1.1-2.5,1.6-3.9,1.6s-2.9-0.5-3.9-1.6c-2.2-2.2-2.2-5.7,0-7.9l14-14l0,0l3.9-3.9l3.9,3.9l0,0l13,13c1.9,1.9,2.1,4.9,0.7,7
				c-0.2,0.3-0.4,0.6-0.7,0.9c-2.2,2.2-5.7,2.2-7.9,0l-3.5-3.5v60.8c0,0.1,0,0.2,0,0.3c4.8,1.2,9.8,1.9,14.9,1.9
				C369.8,415,396.8,388,396.8,354.7z"/>
			<path class="st15" d="M359.4,299c21.9,9,37.4,30.6,37.4,55.7c0,33.2-27,60.3-60.3,60.3c-5.2,0-10.1-0.7-14.9-1.9
				c0-0.1,0-0.2,0-0.3v-60.7l3.5,3.5c2.2,2.2,5.7,2.2,7.9,0c0.3-0.3,0.5-0.6,0.7-0.9l2.4,0.2c-1.4,2.2-1.2,5.1,0.7,7l13,13l0,0
				l3.9,3.9l3.9-3.9l0,0l14-14c2.2-2.2,2.2-5.7,0-7.9c-2.2-2.2-5.7-2.2-7.9,0l-4.4,4.4L359.4,299L359.4,299z"/>
			<path class="st15" d="M348.4,295.6c-0.1,0.4-0.1,0.7-0.1,1.1v60.8l-3.5-3.5c-2.2-2.2-5.7-2.2-7.9,0c-0.3,0.3-0.5,0.6-0.7,0.9
				l-2.4-0.2c1.4-2.2,1.2-5.1-0.7-7l-13-13l0,0l-3.9-3.9l-3.9,3.9l0,0l-14,14c-2.2,2.2-2.2,5.7,0,7.9c1.1,1.1,2.5,1.6,3.9,1.6
				s2.9-0.5,3.9-1.6l4.4-4.4v57c-20.2-9.7-34.2-30.4-34.2-54.3c0-33.2,27-60.3,60.3-60.3C340.6,294.5,344.5,294.9,348.4,295.6z"/>
		</g>
		<g>
			<path class="st17" d="M336.5,277.3c-42.8,0-77.5,34.7-77.5,77.5s34.7,77.5,77.5,77.5s77.5-34.7,77.5-77.5
				S379.3,277.3,336.5,277.3z"/>
			<path class="st17" d="M336.5,425.3c-38.9,0-70.6-31.7-70.6-70.6s31.7-70.6,70.6-70.6s70.6,31.7,70.6,70.6
				S375.5,425.3,336.5,425.3z"/>
			<path class="st17" d="M333.8,354.6c-0.2,0.3-0.4,0.6-0.7,0.9c-2.2,2.2-5.7,2.2-7.9,0l-3.5-3.5v60.8c0,0.1,0,0.2,0,0.3
				c4.8,1.2,9.8,1.9,14.9,1.9c33.2,0,60.3-27,60.3-60.3c0-25.1-15.5-46.7-37.4-55.7v58.5l4.4-4.4c2.2-2.2,5.7-2.2,7.9,0
				c2.2,2.2,2.2,5.7,0,7.9l-14,14l0,0l-3.9,3.9L350,375l0,0l-13-13c-1.9-1.9-2.1-4.9-0.7-7c0.2-0.3,0.4-0.6,0.7-0.9
				c2.2-2.2,5.7-2.2,7.9,0l3.5,3.5v-60.8c0-0.4,0-0.7,0.1-1.1c-3.8-0.8-7.8-1.2-11.8-1.2c-33.2,0-60.3,27-60.3,60.3
				c0,23.9,14,44.5,34.2,54.3v-57l-4.4,4.4c-1.1,1.1-2.5,1.6-3.9,1.6s-2.9-0.5-3.9-1.6c-2.2-2.2-2.2-5.7,0-7.9l14-14l0,0l3.9-3.9
				l3.9,3.9l0,0l13,13C334.9,349.5,335.2,352.5,333.8,354.6z"/>
		</g>
	</g>
</g>
<g class="st2">
	<g class="st3">
		<polygon class="st18" points="389.2,391.1 381.5,391.1 375.8,379.6 368.1,379.6 362.3,391.1 308.6,391.1 300.9,379.6 285.5,379.6 
			285.5,348.8 300.9,348.8 300.9,341.2 352.7,341.2 352.7,348.8 362.3,348.8 368.1,358.4 375.8,358.4 381.5,341.2 389.2,341.2 		"/>
		<path class="st18" d="M285.5,364.2h-7.7c-1.1,0-1.9-0.9-1.9-1.9c0-1.1,0.9-1.9,1.9-1.9h7.7c1.1,0,1.9,0.9,1.9,1.9
			C287.4,363.3,286.6,364.2,285.5,364.2"/>
		<path class="st18" d="M277.8,371.9c-1.1,0-1.9-0.9-1.9-1.9v-15.4c0-1.1,0.9-1.9,1.9-1.9c1.1,0,1.9,0.9,1.9,1.9V370
			C279.8,371,278.9,371.9,277.8,371.9"/>
	</g>
	<g class="st3">
		<polygon class="st19" points="310.5,329.6 345,329.6 345,318.1 310.5,318.1 		"/>
		<polygon class="st19" points="318.2,341.2 337.4,341.2 337.4,329.6 318.2,329.6 		"/>
		<polygon class="st19" points="285.5,379.6 300.9,379.6 300.9,348.8 285.5,348.8 		"/>
		<polygon class="st19" points="368.1,379.6 375.8,379.6 375.8,358.4 368.1,358.4 		"/>
	</g>
</g>
<g id="SVGRepo_iconCarrier_1_" class="st2">
	<path class="st20" d="M105,228c0,22.1-17.9,40-40,40c22.1,0,40,17.9,40,40c0-22.1,17.9-40,40-40C122.9,268.1,105,250.1,105,228z"/>
	<path class="st20" d="M155,301.4c0,9.2-7.5,16.7-16.7,16.7c9.2,0,16.7,7.5,16.7,16.7c0-9.2,7.5-16.7,16.7-16.7
		C162.5,318.1,155,310.6,155,301.4z"/>
</g>
<g id="SVGRepo_iconCarrier_2_" class="st2">
	<path class="st20" d="M344,49.3c0,22.1-17.9,40-40,40c22.1,0,40,17.9,40,40c0-22.1,17.9-40,40-40C361.9,89.3,344,71.4,344,49.3z"/>
	<path class="st20" d="M394,122.7c0,9.2-7.5,16.7-16.7,16.7c9.2,0,16.7,7.5,16.7,16.7c0-9.2,7.5-16.7,16.7-16.7
		C401.5,139.3,394,131.9,394,122.7z"/>
</g>
<rect x="328" y="74.2" class="st21" width="31.7" height="31.7"/>
<rect x="90" y="253.8" class="st21" width="31.7" height="28.5"/>
<rect x="389.9" y="135.9" class="st21" width="8.8" height="8.8"/>
<rect x="151.4" y="312.1" class="st21" width="8.8" height="8.8"/>
<g id="progressive-webapps_x2F_apis_x2F_service-workers" class="st2">
	<g id="container" transform="translate(2.000000, 2.000000)" class="st3">
		<path class="st22" d="M485.6,20.4c-3.8-4.6-7.9-8.9-12.4-12.8c-3.9-2.7-7.9-5.1-12.2-7.1c-12.5-4.7-25.7-7-38.9-8.8
			c-24.5-3.1-49.2-4.3-74-4.6c-22.3-0.3-44.5,0.1-66.8,0.4c-22.2,0.2-44.3,0.1-66.5,0.2c-42.9,0.2-86,1.4-128.6,6.9
			C69.5-3,52.8,0,36.4,3.9c-5.5,1.3-10.8,0.8-15.5-1.2c-0.7,1.3-1.4,2.6-2,4c-2.6,7-4.4,14.3-5.6,21.7C12.1,39,11.9,49.7,12,60.4
			c0.3,22.3,1.2,44.4,0.1,66.8c-1.4,28.1-4.4,56.1-8.2,84c0.3-2.1,0.6-4.2,0.9-6.4c-1.7,12.8-3.3,25.6-4.5,38.5
			c-1.2,12.3-1.8,24.6-2.2,36.9c1.1,5.5,1.9,11.1,2.5,16.6c1.3,10.7,1.2,21.4,0.8,32.1c-0.6,15.1-1.9,30.2-1.7,45.2
			c0.7,4.7,1.6,9.3,2.2,14c1,7.5,0.9,13.4-0.2,21.1c-0.6,3.9-3.7,8.4-7.2,11.6c5.3,6.1,11,11.8,17.3,16.9
			c7.6,5.6,15.8,10.3,24.4,14.1c12.4,4.9,25.3,8,38.5,10c9,1.1,18.1,1.7,27.2,1.9c22.6,0.5,45.3,0.5,67.9,0.2
			c22.4-0.2,44.9-1.2,67.2-3.9c17.2-2.5,34.2-5.8,51.6-6.5c14.9-0.6,29.8-0.1,44.7,0.1c15,0.2,29.9-0.3,44.9-0.9
			c28.6-1.1,57.2-3,85.5-6.6c5.6-0.8,11.3-1.7,16.9-2.6c0.6-0.1,1.2-0.2,1.9-0.3c1.5-19.5-0.6-39-1.4-58.4
			c-0.6-13.1-0.3-26.3-0.4-39.4c-0.2-16.5-0.5-33-0.8-49.4c-0.7-33.6-0.8-67.3-0.5-100.9c0.2-16.6,0.4-33.2,0.8-49.8
			c0.3-14,1-27.9,0.9-41.9c-0.1-24.9-1.5-52.4,9.8-75.3C489.2,25.4,487.4,22.9,485.6,20.4z"/>
		<g id="customer-service" transform="translate(13.000000, 10.000000)">
			<path id="Shape" class="st23" d="M142.8,208.8l-9.1-4.5c-2.1-1.1-3.5-3.2-3.5-5.6v-23.6c0-2.4,1.3-4.5,3.5-5.6l9.1-4.5V208.8z"/>
			<polygon id="Shape_1_" class="st24" points="286.8,290.2 286.8,246.4 174.1,246.4 174.1,290.2 230.4,340.3 			"/>
			<path id="Shape_2_" class="st25" d="M373.9,310.7l-77.5-18.2c-1.2-0.3-2.2-0.7-3.3-1.3l-62.7,36.6l-60.3-38.4
				c-1.6,1.5-3.5,2.6-5.7,3.1l-77.5,18.2c-11.3,2.7-19.3,12.8-19.3,24.4v49c0,6.9,5.6,12.5,12.5,12.5h300.5
				c6.9,0,12.5-5.6,12.5-12.5v-49C393.2,323.5,385.2,313.4,373.9,310.7z"/>
			<path id="Shape_3_" class="st26" d="M174.1,246.4v46.2c71,25.6,112.7-38.4,112.7-38.4v-7.8L174.1,246.4L174.1,246.4z"/>
			<path id="Shape_4_" class="st27" d="M149,102.4l5.5,120c0.5,11.2,6,21.6,15,28.3l25.9,19.4c6.5,4.9,14.4,7.5,22.5,7.5h25
				c8.1,0,16-2.6,22.5-7.5l25.9-19.4c9-6.7,14.5-17.1,15-28.3l5.5-120H149z"/>
			<path id="Shape_5_" class="st24" d="M211.6,127.4c25,0,62.6-6.3,71.5-25H149l5.5,120c0.5,11.2,6,21.6,15,28.3l25.9,19.4
				c6.5,4.9,14.4,7.5,22.5,7.5h12.5c-12.5,0-37.6-25-37.6-56.3c0-15.3,0-56.3,0-75.1C192.8,140,199.1,127.4,211.6,127.4z"/>
			<g id="Group" transform="translate(0.000000, 38.073066)">
				<path id="Shape_6_" class="st28" d="M113.6,317.9L73,281.5c-3.4,4.3-5.4,9.7-5.4,15.5v49c0,6.9,5.6,12.5,12.5,12.5H124v-17.3
					C124,332.3,120.2,323.9,113.6,317.9z"/>
				<path id="Shape_7_" class="st28" d="M347.2,317.9l40.6-36.4c3.4,4.3,5.4,9.7,5.4,15.5v49c0,6.9-5.6,12.5-12.5,12.5h-43.8v-17.3
					C336.8,332.3,340.6,323.9,347.2,317.9z"/>
			</g>
			<polygon id="Shape_8_" class="st29" points="246.1,396.6 214.8,396.6 218.7,340.3 242.1,340.3 			"/>
			<path id="Shape_9_" class="st30" d="M246.1,327.8h-31.3v11.8c0,3.9,3.1,7,7,7h17.3c3.9,0,7-3.1,7-7L246.1,327.8L246.1,327.8z"/>
			<g id="Group_1_" transform="translate(11.714789, 32.121197)">
				<path id="Shape_10_" class="st28" d="M161.5,244.1l57.2,51.5c0,0-16,8.1-35.8,24.4c-4.1,3.4-10.3,2-12.4-2.8l-26.9-59.1
					l8.5-12.8C154.2,242.2,158.6,241.6,161.5,244.1z"/>
				<path id="Shape_11_" class="st28" d="M275.9,244.1l-57.2,51.5c0,0,16,8.1,35.8,24.4c4.1,3.4,10.3,2,12.4-2.8l26.9-59.1
					l-8.5-12.8C283.2,242.2,278.8,241.6,275.9,244.1z"/>
			</g>
			<path id="Shape_12_" class="st31" d="M268.4,60.9l5.9,41.5c26.8,5.4,30.7,47.4,31.2,59.4c0.1,2.2,0.8,4.3,2,6.1l10.2,15.9
				c0,0-3.5-26.2,12.5-43.8C330.2,140,335.7,35.9,268.4,60.9z"/>
			<path id="Shape_13_" class="st32" d="M155,49.7l9.3,6.3c-41.9,30.9-34,83.9-34,83.9c12.5,12.5,12.5,43.8,12.5,43.8l12.5-12.5
				c0,0-4.8-36.2,18.8-50.1c21.9-12.9,41.1-6.3,60.6-6.3c52.4,0,67.1-19.8,64.6-43.8c-1.3-12.5-20.4-38.4-68.9-37.6
				C210.8,33.9,174.1,39.8,155,49.7z"/>
			<path id="Shape_14_" class="st33" d="M151.4,109.4c0,0-6.7-26.2,12.9-53.4c-41.9,30.9-34,83.9-34,83.9
				c12.5,12.5,12.5,43.8,12.5,43.8l12.5-12.5c0,0-4.8-36.2,18.8-50.1c21.9-12.9,41.1-6.3,60.6-6.3c8.5,0,16-0.6,22.6-1.5
				C216.9,114.7,193.1,84.1,151.4,109.4z"/>
			<path id="Shape_15_" class="st29" d="M152.2,215.1h-9.4c-3.5,0-6.3-2.8-6.3-6.3V165c0-3.5,2.8-6.3,6.3-6.3h9.4
				c1.7,0,3.1,1.4,3.1,3.1V212C155.3,213.7,153.9,215.1,152.2,215.1z"/>
			<path id="Shape_16_" class="st34" d="M255.5,251.1v-9.4c42.4,0,51.6-23.7,51.6-32.9h9.4C316.5,220.6,305.5,251.1,255.5,251.1z"/>
			<path id="Shape_17_" class="st29" d="M255.5,252.6h-6.3c-3.5,0-6.3-2.8-6.3-6.3s2.8-6.3,6.3-6.3h6.3c3.5,0,6.3,2.8,6.3,6.3
				S258.9,252.6,255.5,252.6z"/>
			<path id="Shape_18_" class="st23" d="M318.1,208.8l9.1-4.5c2.1-1.1,3.5-3.2,3.5-5.6v-23.6c0-2.4-1.3-4.5-3.5-5.6l-9.1-4.5V208.8z
				"/>
			<path id="Shape_19_" class="st29" d="M308.7,215.1h9.4c3.5,0,6.3-2.8,6.3-6.3V165c0-3.5-2.8-6.3-6.3-6.3h-9.4
				c-1.7,0-3.1,1.4-3.1,3.1V212C305.5,213.7,306.9,215.1,308.7,215.1z"/>
			<path id="Shape_20_" class="st28" d="M311.8,384.1H268c-3.5,0-6.3,2.8-6.3,6.3v6.3h56.3v-6.3
				C318.1,386.9,315.3,384.1,311.8,384.1z"/>
		</g>
	</g>
</g>
<path class="st35" d="M142.4,329.4c-7.9,0-14.3-3.5-18.5-10.2c-5.5-8.7-5.6-20.2-5.4-25.5c0.3-8.6,2.2-17.3,5-23.2l9.5,4.5
	c-4.3,8.9-6.3,29-0.3,38.6c2.3,3.6,5.3,5.3,9.6,5.3L142.4,329.4L142.4,329.4z"/>
<path d="M123.5,270.5c-1.7,3.5-3,8.1-3.9,13c2.3,1.7,5.6,3,10,3.6c0.7-4.7,1.9-9.1,3.3-12.1L123.5,270.5z"/>
<path class="st36" d="M142.4,246.2c-5.2,0-22.3,12.6-22.3,25c0,12.4,17.1,9.7,22.3,9.7V246.2z"/>
<path d="M142.4,246.2v34.7c-2.2,0-6.3,0.5-10.4,0.1v-29.3C136.1,248.4,140.2,246.2,142.4,246.2z"/>
<path class="st35" d="M231.6,329.4c7.9,0,14.3-3.5,18.5-10.2c5.5-8.7,5.6-20.2,5.4-25.5c-0.3-8.6-2.2-17.3-5-23.2l-9.5,4.5
	c4.3,8.9,6.3,29,0.3,38.6c-2.3,3.6-5.3,5.3-9.6,5.3L231.6,329.4z"/>
<path d="M250.5,270.5c1.7,3.5,3,8.1,3.9,13c-2.3,1.7-5.6,3-10,3.6c-0.7-4.7-1.9-9.1-3.3-12.1L250.5,270.5z"/>
<path class="st37" d="M231.6,246.2c5.2,0,22.3,12.6,22.3,25c0,12.4-17.1,9.7-22.3,9.7V246.2z"/>
<path d="M231.6,246.2v34.7c2.2,0,6.3,0.5,10.4,0.1v-29.3C238,248.4,233.8,246.2,231.6,246.2z"/>
<path class="st36" d="M393.7,95.1c0-3.8-3.1-7-7-7H101.8c-3.8,0-7,3.1-7,7v61.5c0,3.8,3.1,7,7,7h284.9c3.8,0,7-3.1,7-7L393.7,95.1
	L393.7,95.1z"/>
<path class="st35" d="M235.2,370.4V238.3c0-4.3-3.5-7.8-7.8-7.8h-80.9c-4.3,0-7.8,3.5-7.8,7.8v132.2H235.2z"/>
<path d="M138.8,310.2h96.4v60.3h-96.4V310.2z"/>
<path class="st38" d="M157.3,343.1h11.2v27.3h-11.2V343.1z M205.5,343.1h11.2v27.3h-11.2V343.1z"/>
<path class="st15" d="M158.2,253.3h57.7v20.9h-57.7V253.3z"/>
<path d="M303.1,163.1h58.7v207.4h-58.7V163.1z"/>
<path d="M303.1,163.1h58.7v21.8h-58.7V163.1z M303.1,275.4h58.7v16.7h-58.7V275.4z"/>
<path class="st38" d="M375.1,370.4v-79.3c0-3.8-3.1-7-7-7h-71.3c-3.8,0-7,3.1-7,7v79.3H375.1z"/>
<path class="st39" d="M194.5,88.2h-37.7l-42.3,75.5h37.8L194.5,88.2z"/>
<path class="st40" d="M232.2,88.2h-37.8l-42.3,75.5h37.7L232.2,88.2z"/>
<path class="st36" d="M138.8,295.2H187v33.4h-48.2V295.2z"/>
<path class="st37" d="M187,295.2h48.2v33.4H187V295.2z"/>
<path class="st39" d="M331.5,145.7c7.7,0,13.9-6.2,13.9-13.9s-13.9-24.2-13.9-24.2s-13.9,16.6-13.9,24.2
	C317.5,139.5,323.8,145.7,331.5,145.7z"/>
<path class="st35" d="M408.3,383.4c0,1.6-1.3,2.8-2.8,2.8H83.3c-1.6,0-2.8-1.3-2.8-2.8v-10.1c0-1.6,1.3-2.8,2.8-2.8h322.2
	c1.6,0,2.8,1.3,2.8,2.8V383.4z"/>
<path class="st15" d="M172.2,314.8h-18.5c-2.9,0-5.2-2.3-5.2-5.2s2.3-5.2,5.2-5.2h18.5c2.9,0,5.2,2.3,5.2,5.2
	S175.1,314.8,172.2,314.8z M220.4,314.8h-18.5c-2.9,0-5.2-2.3-5.2-5.2s2.3-5.2,5.2-5.2h18.5c2.9,0,5.2,2.3,5.2,5.2
	S223.2,314.8,220.4,314.8z"/>
<path class="st41" d="M327.6,303.4c0,2.7,2.2,4.9,4.9,4.9s4.9-2.2,4.9-4.9s-2.2-4.9-4.9-4.9S327.6,300.7,327.6,303.4z"/>
<path class="st41" d="M303.5,303.4c0,2.7,2.2,4.9,4.9,4.9c2.7,0,4.9-2.2,4.9-4.9s-2.2-4.9-4.9-4.9
	C305.7,298.5,303.5,300.7,303.5,303.4z"/>
<path class="st41" d="M351.7,303.4c0,2.7,2.2,4.9,4.9,4.9s4.9-2.2,4.9-4.9s-2.2-4.9-4.9-4.9S351.7,300.7,351.7,303.4z"/>
</svg>
