<?xml version="1.0" encoding="utf-8"?>
<!-- Generator: Adobe Illustrator 24.1.1, SVG Export Plug-In . SVG Version: 6.00 Build 0)  -->
<svg version="1.1" id="Layer_1" xmlns="http://www.w3.org/2000/svg" xmlns:xlink="http://www.w3.org/1999/xlink" x="0px" y="0px"
	 viewBox="0 0 490 490" style="enable-background:new 0 0 490 490;" xml:space="preserve">
<style type="text/css">
	.st0{opacity:0.1;stroke:#000000;stroke-width:9;stroke-miterlimit:10;}
	.st1{fill:#27323A;}
	.st2{fill:#F4CE73;}
	.st3{fill:#FFFFFF;}
	.st4{fill:#79CCBF;}
</style>
<circle class="st0" cx="244" cy="244.7" r="228.2"/>
<path class="st1" d="M374.1,196.7h-0.4v-17.8c0-25-23.7-48.3-36.5-60.8l-2.9-2.8C296.8,77.7,281,74.5,268,74.5l-4.3,0H161.3
	c-8.9,0-15,6.1-15,14.8v49.6h-31.4c-16.1,0-29.2,13.1-29.2,29.2v195.4c0,15.8,12.6,28.6,28.2,29.1c0.2,0,0.4,0.1,0.6,0.1h259.7
	c16.1,0,29.2-13.1,29.2-29.2V225.9C403.3,209.8,390.2,196.7,374.1,196.7z"/>
<path class="st2" d="M320.9,128.7l3,3c4.3,4.3,10.7,10.6,16.5,17.7c-11.2-3.4-23.3-4.2-34.2-4.7c-0.4-7.8-1.8-21.9-6.1-35.1
	C305.9,114.4,312.7,120.6,320.9,128.7z"/>
<path class="st3" d="M165.3,93.6h98.3l4.3,0c2.2,0,5.1,0,9.4,1.6l1.3,1.3c11.1,11,15.1,38.5,15.1,54.3c0,3.4,2.7,6.2,6.1,6.4
	l2.3,0.1c16.9,0.6,37.9,1.5,50.6,12.9l0.2,0.2c1,3,1.7,6,1.7,8.8c0,0,0,9.8,0,17.5H265c-15.3,0-28.3,20.7-34,20.7h-65.7V93.6z"/>
<path class="st4" d="M121,246.6v117.1c0,5.1-2,9.5-8.3,9.5c-5.5,0-8-4.2-8-9.8V168.1c0-5.6,4.5-10.1,10.1-10.1h31.4v59.9
	C132,219.8,121,231.9,121,246.6L121,246.6z"/>
<path class="st2" d="M384.2,363.5c0,5.6-4.6,10.2-10.1,10.2H138.5c0-0.1,0-0.2,0.1-0.3c0.5-2.8,1.4-5.4,1.4-8.6V246.6
	c0-5.6,4.6-10.1,10.2-10.1H231c9.6,0,16.1-6,22.3-11.7c3-2.8,9.2-8.5,11.9-9h108.8c5.6,0,10.1,4.5,10.1,10.1L384.2,363.5
	L384.2,363.5z"/>
<path class="st1" d="M345.7,263.7h-78.3c-4.6,0-8.3,3.7-8.3,8.3c0,4.6,3.7,8.3,8.3,8.3h78.3c4.5,0,8.2-3.7,8.2-8.3
	C354,267.4,350.3,263.7,345.7,263.7z M345.7,300.2h-78.3c-4.6,0-8.3,3.7-8.3,8.3c0,4.6,3.7,8.3,8.3,8.3h78.3c4.5,0,8.2-3.7,8.2-8.3
	C354,303.9,350.3,300.2,345.7,300.2z"/>
</svg>
