<?xml version="1.0" encoding="utf-8"?>
<!-- Generator: Adobe Illustrator 24.1.1, SVG Export Plug-In . SVG Version: 6.00 Build 0)  -->
<svg version="1.1" id="Layer_1" xmlns="http://www.w3.org/2000/svg" xmlns:xlink="http://www.w3.org/1999/xlink" x="0px" y="0px"
	 viewBox="0 0 490 490" style="enable-background:new 0 0 490 490;" xml:space="preserve">
<style type="text/css">
	.st0{opacity:0.1;stroke:#000000;stroke-width:9;stroke-miterlimit:10;}
	.st1{fill:none;}
	.st2{display:none;}
	.st3{display:inline;}
	.st4{fill:#1E1E1C;}
	.st5{fill:#2B2B2B;}
	.st6{fill:#5D6061;}
	.st7{fill:#FF0037;}
	.st8{fill:#FFE261;}
	.st9{fill:#745B4D;}
	.st10{fill:#362E28;}
	.st11{fill:#5BA0BE;}
	.st12{fill-opacity:0.1;}
	.st13{fill-opacity:0.2;}
	.st14{fill:#FFFFFF;}
	.st15{fill:#00DF5E;}
	.st16{fill:#FFDA44;}
	.st17{fill:#FF3501;}
	.st18{fill:#2488FF;}
	.st19{fill:#005ECE;}
	.st20{fill:#CD2A00;}
	.st21{fill:#D8D7DA;}
</style>
<circle class="st0" cx="244" cy="244.7" r="228.2"/>
<line class="st1" x1="305.9" y1="338.6" x2="307.8" y2="354.6"/>
<line class="st1" x1="322.9" y1="342.7" x2="323.4" y2="354.8"/>
<g id="SVGRepo_iconCarrier" class="st2">
	<g id="brt-bus-inbound" transform="matrix(1.27,0,0,1.27,-46.314,-39.542)" class="st3">
		<g transform="matrix(0.459284,0,0,0.459284,55.5343,45)">
			<path class="st4" d="M126.7,305.4L99,295.9V155.1l27.6-9.3V305.4z"/>
		</g>
		<g transform="matrix(0.459284,0,0,0.459284,55.5343,45)">
			<path class="st4" d="M126.7,158.2l22.5-1.3l0.2,54.8l6.4,2.3l-1.5-68.1h-27.6V158.2z"/>
		</g>
		<g transform="matrix(0.459284,0,0,0.459284,55.5343,45)">
			<path class="st4" d="M627,145.8l27.6,9.3v140.8l-27.6,9.5V145.8z"/>
		</g>
		<g transform="matrix(0.459284,0,0,0.459284,55.5343,45)">
			<path class="st4" d="M627,145.8h-27.7l-1.5,68.1l6.4-2.2l0.2-54.8l22.5,1.3V145.8z"/>
		</g>
		<g transform="matrix(0.459284,0,0,0.459284,55.5343,45)">
			<path class="st5" d="M218.1,681.9l55.7-119.8l-45.5-44.2"/>
		</g>
		<g transform="matrix(0.459284,0,0,0.459284,55.5343,45)">
			<path class="st6" d="M156,518l13.5,163.9h48.6l10.2-164L156,518z"/>
		</g>
		<g transform="matrix(0.459284,0,0,0.459284,55.5343,45)">
			<path class="st5" d="M535.3,681.9l-55.7-119.7l45.5-44.2"/>
		</g>
		<g transform="matrix(0.459284,0,0,0.459284,55.5343,45)">
			<path class="st6" d="M597.4,518l-13.5,163.9h-48.6l-10.2-164L597.4,518z"/>
		</g>
		<g transform="matrix(0.459284,0,0,0.459284,55.5343,45)">
			<path class="st7" d="M604.5,126.8L584.1,97H169.3L149,126.8l-11.7,444l21.4,62.5h436.3l21.4-62.5L604.5,126.8z"/>
		</g>
		<g transform="matrix(0.459284,0,0,0.459284,55.5343,45)">
			<path class="st4" d="M167.6,508.9l-17.8-52L161.3,127L175.9,97h401.6l14.6,30.1L603.8,457l-17.8,52H167.6z"/>
		</g>
		<g transform="matrix(0.459284,0,0,0.459284,55.5343,45)">
			<path class="st8" d="M242.9,570.8l-10.6,31.4h-46.2l-10.6-31.4H242.9z"/>
		</g>
		<g transform="matrix(0.459284,0,0,0.459284,55.5343,45)">
			<path class="st8" d="M578.1,570.8l-10.6,31.4h-46.2l-10.8-31.4H578.1z"/>
		</g>
		<g transform="matrix(0.459284,0,0,0.459284,55.5343,45)">
			<path class="st9" d="M204.2,97.1l4.4-12.8h336.1l4.4,12.8H204.2z"/>
		</g>
		<g transform="matrix(0.459284,0,0,0.459284,55.5343,45)">
			<path class="st10" d="M350.3,84.2l4.4-12.8h44l4.4,12.8H350.3z"/>
		</g>
		<g transform="matrix(0.459284,0,0,0.459284,55.5343,45)">
			<path class="st4" d="M577.5,97H175.9L161.3,127h430.7L577.5,97z"/>
		</g>
		<g transform="matrix(0.459284,0,0,0.459284,55.5343,45)">
			<path class="st8" d="M592.1,127.1L592.1,127.1l-430.7,0l-1.9,52.8H594L592.1,127.1z"/>
		</g>
		<g transform="matrix(0.459284,0,0,0.459284,55.5343,45)">
			<path class="st11" d="M159.5,179.8L151,423.1h451.7L594,179.8H159.5z"/>
		</g>
		<g transform="matrix(0.459284,0,0,0.459284,55.5343,45)">
			<path class="st7" d="M179.1,170.4l-0.2-33.9h6.9v27.2h11.3v6.7L179.1,170.4z"/>
		</g>
		<g transform="matrix(0.459284,0,0,0.459284,55.5343,45)">
			<path class="st7" d="M204.7,136.7l0.1,18.3l18,0.2l0.1,15.2l6.7-0.1v-33.6h-6.9l-0.1,11.7h-11.3v-11.7L204.7,136.7z"/>
		</g>
		<g transform="matrix(0.459284,0,0,0.459284,55.5343,45)">
			<path class="st12" d="M598.9,319.2L409.1,508.9H167.6l-10.4-30.3L508.8,127h83.3l1.9,52.8L598.9,319.2L598.9,319.2z"/>
		</g>
		<g transform="matrix(0.459284,0,0,0.459284,55.5343,45)">
			<path class="st1" d="M409.1,508.9L409.1,508.9"/>
		</g>
		<g transform="matrix(0.459284,0,0,0.459284,55.5343,45)">
			<path class="st13" d="M599.8,344.8L435.7,508.9h-26.6l189.8-189.8L599.8,344.8z"/>
		</g>
		<g transform="matrix(0.459284,0,0,0.459284,55.5343,45)">
			<path class="st1" d="M598.9,319.2L598.9,319.2"/>
		</g>
	</g>
</g>
<g class="st2">
	<g id="XMLID_1_" class="st3">
		<g>
			<polygon class="st14" points="369.7,343.7 327.6,385.8 301,359.1 310.3,349.8 327.6,367.1 360.4,334.4 			"/>
			<path class="st15" d="M336.4,297.3c34,0,61.6,27.6,61.6,61.6s-27.6,61.6-61.6,61.6s-61.6-27.6-61.6-61.6S302.4,297.3,336.4,297.3
				z M327.6,385.8l42-42l-9.3-9.3l-32.7,32.7l-17.3-17.3l-9.3,9.3L327.6,385.8z"/>
		</g>
		<g>
		</g>
	</g>
</g>
<g>
	<path class="st16" d="M359,309.9H238.8c-9.1,0-16.6-7.4-16.6-16.6c0-9.1,7.4-16.6,16.6-16.6h96.6c-1.9-4.4-3-9.3-3-14.4
		s1.1-10,3-14.4h-96.6c-25.1,0-45.4,20.4-45.4,45.4c0,25.1,20.4,45.4,45.4,45.4H359c9.1,0,16.6,7.4,16.6,16.6s-7.4,16.6-16.6,16.6
		H159.7c1.9,4.4,3,9.3,3,14.4c0,5.1-1.1,10-3,14.4H359c25.1,0,45.4-20.4,45.4-45.4S384.1,309.9,359,309.9z"/>
	<rect x="265.2" y="65.2" class="st17" width="88.8" height="102"/>
	<path class="st16" d="M382.8,229.3V65.2H354v164.1c4.4-1.9,9.3-3,14.4-3C373.5,226.2,378.4,227.3,382.8,229.3z"/>
	<path class="st18" d="M335.3,276.8c5.6,12.7,18.3,21.7,33.1,21.7v-72.2c-5.1,0-10,1.1-14.4,3c-8.3,3.6-15,10.3-18.6,18.6
		c-1.9,4.4-3,9.3-3,14.4C332.3,267.5,333.4,272.4,335.3,276.8z"/>
	<path class="st19" d="M368.4,298.4c19.9,0,36.1-16.2,36.1-36.1c0-14.8-8.9-27.5-21.7-33.1c-4.4-1.9-9.3-3-14.4-3V298.4z"/>
	<path class="st18" d="M90.5,386.4c0,19.9,16.2,36.1,36.1,36.1v-72.2C106.7,350.3,90.5,366.5,90.5,386.4z"/>
	<path class="st19" d="M159.7,371.9c-5.6-12.7-18.3-21.7-33.1-21.7v72.2c14.8,0,27.5-8.9,33.1-21.7c1.9-4.4,3-9.3,3-14.4
		C162.7,381.3,161.6,376.4,159.7,371.9z"/>
	<path class="st20" d="M154.5,205.6c0,15.9-13,28.9-28.9,28.9v95.5l60.8-76.4c10.8-13.6,16.7-30.6,16.7-48
		c0-42.7-34.8-77.5-77.5-77.5v48.6C141.5,176.7,154.5,189.6,154.5,205.6z"/>
	<path class="st21" d="M154.5,205.6c0-15.9-13-28.9-28.9-28.9v57.7C141.5,234.4,154.5,221.5,154.5,205.6z"/>
	<path class="st17" d="M125.6,234.4c-15.9,0-28.9-13-28.9-28.9c0-15.9,13-28.9,28.9-28.9v-48.6c-42.7,0-77.5,34.7-77.5,77.5
		c0,17.3,5.9,34.4,16.7,48l60.7,76.4V234.4z"/>
	<path class="st14" d="M96.7,205.6c0,15.9,13,28.9,28.9,28.9v-57.7C109.7,176.7,96.7,189.6,96.7,205.6z"/>
</g>
</svg>
