<?xml version="1.0" encoding="utf-8"?>
<!-- Generator: Adobe Illustrator 24.1.1, SVG Export Plug-In . SVG Version: 6.00 Build 0)  -->
<svg version="1.1" id="Layer_1" xmlns="http://www.w3.org/2000/svg" xmlns:xlink="http://www.w3.org/1999/xlink" x="0px" y="0px"
	 viewBox="0 0 490 490" style="enable-background:new 0 0 490 490;" xml:space="preserve">
<style type="text/css">
	.st0{fill:none;stroke:#000000;stroke-width:9;stroke-miterlimit:10;}
	.st1{fill:#231F20;}
	.st2{fill:#96CCEE;}
	.st3{fill:#FFEABB;}
	.st4{fill:#F94060;}
	.st5{fill:#F7BF75;}
	.st6{fill:#6F73D5;}
	.st7{fill:#D62657;}
	.st8{opacity:0.1;stroke:#000000;stroke-width:9;stroke-miterlimit:10;}
</style>
<path class="st0" d="M402.7,295.2h-3.3V108.1c0-3.7-3-6.7-6.7-6.7H282.5V84.7c0-3.7-3-6.7-6.7-6.7h-60.1c-3.7,0-6.7,3-6.7,6.7v16.7
	H98.7c-3.7,0-6.7,3-6.7,6.7v187.1h-3.3c-3.7,0-6.7,3-6.7,6.7v23.4c0,3.7,3,6.7,6.7,6.7h101.8l-34,56.7l11.5,6.9l38.1-63.6h33v73.5
	h13.4v-73.5h33l38.1,63.6l11.5-6.9l-34-56.7h101.8c3.7,0,6.7-3,6.7-6.7v-23.4C409.4,298.2,406.4,295.2,402.7,295.2z M222.3,91.4
	h46.8v10h-46.8V91.4z M105.4,114.8H386v197H105.4V114.8z"/>
<rect x="317.4" y="163.4" class="st1" width="49.8" height="14.2"/>
<rect x="317.4" y="184.7" class="st1" width="49.8" height="14.2"/>
<rect x="317.4" y="206" class="st1" width="49.8" height="14.2"/>
<rect x="317.4" y="142" class="st1" width="32" height="14.2"/>
<path class="st1" d="M265.5,164.8l-10.1-10.1l10.7-10.7c1.3-1.3,3.1-2.1,5-2.1h32v14.2h-29.1L265.5,164.8z"/>
<rect x="292.5" y="243" class="st1" width="81.8" height="14.2"/>
<rect x="271.2" y="266.9" class="st1" width="103.1" height="14.2"/>
<g id="Pie_Chart">
	<path class="st2" d="M171.2,156.8c-35.5,5.6-59.7,39-54.1,74.5c0.2,1.6,0.6,3.1,0.9,4.7c3.5,15.4,12.6,29,25.6,38
		c17.6,12.3,40.1,15.1,60.2,7.6c4.8-2.2,6.9-7.9,4.7-12.7c-0.1-0.2-0.2-0.4-0.3-0.6L181,221.2v-55.7c0-4.8-3.8-8.7-8.6-8.7
		C172,156.8,171.6,156.8,171.2,156.8z"/>
	<path class="st3" d="M211.9,226.7c-1.8,0-3.4,1-4.3,2.5c-0.9,1.6-0.9,3.5,0,5.1l23.4,40.5c2.3,4.1,7.5,5.6,11.7,3.3
		c0.4-0.2,0.7-0.5,1.1-0.7c13.8-10.9,22.5-27,24.2-44.4c0.1-1.6-0.4-3.2-1.5-4.3c-1.1-1.2-2.6-1.8-4.2-1.8L211.9,226.7z"/>
	<path class="st4" d="M200,144.2c-0.9,0-1.6,0.7-1.6,1.6l0,0v58.3c0,2.7,2.1,5,4.9,5c0.1,0,0.1,0,0.2,0h52.3c2,0,4-0.8,5.3-2.4
		c1.4-1.5,2-3.5,1.8-5.5C258.9,169.3,232.2,145,200,144.2z"/>
	<path class="st5" d="M251.3,226.7c0,18-7.5,35.3-20.7,47.6l1.4,2.2c1.9,3.4,6.2,4.6,9.6,2.7c0.2-0.1,0.4-0.3,0.6-0.4
		c14.5-11,23.8-27.5,25.6-45.6c0.1-1.6-0.4-3.2-1.5-4.3c-1.1-1.2-2.6-1.8-4.2-1.8L251.3,226.7z"/>
	<path class="st6" d="M181,163c0.1-3.5-2.7-6.5-6.2-6.6c-0.5,0-0.9,0-1.4,0.1c-3.2,0.4-6.4,1-9.6,1.8v43.3
		c0.2,12.8,3.6,25.2,10.1,36.2l18.5,32.1c2.2,3.5,1.2,8.2-2.3,10.5c-0.3,0.2-0.7,0.4-1,0.5c-5.3,2.2-10.9,3.7-16.6,4.5
		c2.8,0.3,5.6,0.5,8.4,0.5c9,0,17.9-1.9,26.1-5.5c1.7-0.8,2.9-2.2,3.5-3.9c0.6-1.7,0.4-3.6-0.5-5.2c-5.6-9.9-16.9-29.5-23.7-41.2
		c-3.5-6-5.3-12.8-5.3-19.7L181,163z"/>
	<path class="st7" d="M200,144.2c-0.9,0-1.6,0.7-1.6,1.6l0,0c0,0.2,0,0.4,0,0.6c28.4,7.6,48.2,33.3,48.2,62.7h9.2c2,0,4-0.8,5.3-2.4
		c1.4-1.5,2-3.5,1.8-5.5C258.9,169.3,232.2,145,200,144.2z"/>
</g>
<circle class="st8" cx="245.5" cy="246.1" r="226.7"/>
</svg>
